<svg width="56" height="56" viewBox="0 0 56 56" fill="none" xmlns="http://www.w3.org/2000/svg">
    <path d="M29.193 47.6347C29.193 41.5446 36.5564 38.4946 40.8628 42.8009L46.8249 48.7629C42.1242 53.0274 35.97 55.7162 29.193 56V47.6347Z" fill="url(#paint0_linear_18773_43992)"/>
    <path d="M14.7887 42.7982C19.0951 38.492 26.4585 41.542 26.4586 47.6321V55.984C19.731 55.6193 13.6356 52.8824 8.9922 48.5947L14.7887 42.7982Z" fill="url(#paint1_linear_18773_43992)"/>
    <path d="M56 29.1933C55.7161 35.9726 53.0259 42.1291 48.7588 46.8303L42.7914 40.863C38.485 36.5566 41.5351 29.1933 47.6253 29.1933H56Z" fill="url(#paint2_linear_18773_43992)"/>
    <path d="M8.02356 29.1933C14.1137 29.1933 17.1639 36.5566 12.8574 40.863L7.0756 46.6441C2.90515 41.9669 0.28019 35.8839 0 29.1933H8.02356Z" fill="url(#paint3_linear_18773_43992)"/>
    <path d="M48.5939 8.99276C52.8819 13.6362 55.62 19.7312 55.9846 26.4589H47.632C41.5418 26.4589 38.4917 19.0956 42.7981 14.7892L48.5939 8.99276Z" fill="url(#paint4_linear_18773_43992)"/>
    <path d="M12.8508 14.7892C17.1572 19.0956 14.1071 26.4589 8.01688 26.4589H0.0153542C0.375245 19.8195 3.04516 13.795 7.23649 9.17501L12.8508 14.7892Z" fill="url(#paint5_linear_18773_43992)"/>
    <path d="M26.4586 8.0268C26.4586 14.1169 19.0951 17.167 14.7887 12.8606L9.16911 7.24107C13.7898 3.04723 19.8167 0.376036 26.4586 0.0160216V8.0268Z" fill="url(#paint6_linear_18773_43992)"/>
    <path d="M29.193 0C35.8836 0.28018 41.9667 2.90578 46.644 7.07619L40.8628 12.858C36.5564 17.1643 29.193 14.1142 29.193 8.02413V0Z" fill="url(#paint7_linear_18773_43992)"/>
    <defs>
        <linearGradient id="paint0_linear_18773_43992" x1="48.125" y1="-1.46643e-06" x2="7" y2="58.625" gradientUnits="userSpaceOnUse">
            <stop stop-color="#DFF7B0"/>
            <stop offset="1" stop-color="#005265"/>
        </linearGradient>
        <linearGradient id="paint1_linear_18773_43992" x1="48.125" y1="-1.46643e-06" x2="7" y2="58.625" gradientUnits="userSpaceOnUse">
            <stop stop-color="#DFF7B0"/>
            <stop offset="1" stop-color="#005265"/>
        </linearGradient>
        <linearGradient id="paint2_linear_18773_43992" x1="48.125" y1="-1.46643e-06" x2="7" y2="58.625" gradientUnits="userSpaceOnUse">
            <stop stop-color="#DFF7B0"/>
            <stop offset="1" stop-color="#005265"/>
        </linearGradient>
        <linearGradient id="paint3_linear_18773_43992" x1="48.125" y1="-1.46643e-06" x2="7" y2="58.625" gradientUnits="userSpaceOnUse">
            <stop stop-color="#DFF7B0"/>
            <stop offset="1" stop-color="#005265"/>
        </linearGradient>
        <linearGradient id="paint4_linear_18773_43992" x1="48.125" y1="-1.46643e-06" x2="7" y2="58.625" gradientUnits="userSpaceOnUse">
            <stop stop-color="#DFF7B0"/>
            <stop offset="1" stop-color="#005265"/>
        </linearGradient>
        <linearGradient id="paint5_linear_18773_43992" x1="48.125" y1="-1.46643e-06" x2="7" y2="58.625" gradientUnits="userSpaceOnUse">
            <stop stop-color="#DFF7B0"/>
            <stop offset="1" stop-color="#005265"/>
        </linearGradient>
        <linearGradient id="paint6_linear_18773_43992" x1="48.125" y1="-1.46643e-06" x2="7" y2="58.625" gradientUnits="userSpaceOnUse">
            <stop stop-color="#DFF7B0"/>
            <stop offset="1" stop-color="#005265"/>
        </linearGradient>
        <linearGradient id="paint7_linear_18773_43992" x1="48.125" y1="-1.46643e-06" x2="7" y2="58.625" gradientUnits="userSpaceOnUse">
            <stop stop-color="#DFF7B0"/>
            <stop offset="1" stop-color="#005265"/>
        </linearGradient>
    </defs>
</svg>